<svg width="48" height="48" viewBox="0 0 48 48" fill="none" xmlns="http://www.w3.org/2000/svg">
<path d="M46.6248 23.4448C45.8608 23.4448 45.2496 24.056 45.2496 24.82V37.3293C45.2496 40.7317 42.4788 43.4923 39.0866 43.4923H8.91341C5.51104 43.4923 2.75042 40.7215 2.75042 37.3293V24.6163C2.75042 23.8523 2.13922 23.2411 1.37521 23.2411C0.611205 23.2411 0 23.8523 0 24.6163V37.3293C0 42.2495 4.0034 46.2428 8.91341 46.2428H39.0866C44.0068 46.2428 48 42.2394 48 37.3293V24.82C48 24.0662 47.3888 23.4448 46.6248 23.4448Z" fill="#00BFA5"/>
<path d="M23.0322 35.3226C23.297 35.5874 23.6536 35.73 23.9999 35.73C24.3463 35.73 24.7028 35.5976 24.9676 35.3226L33.7079 26.5823C34.2478 26.0424 34.2478 25.1766 33.7079 24.6367C33.168 24.0968 32.3021 24.0968 31.7622 24.6367L25.3751 31.0339V3.13241C25.3751 2.36841 24.7639 1.7572 23.9999 1.7572C23.2359 1.7572 22.6247 2.36841 22.6247 3.13241V31.0339L16.2274 24.6367C15.6875 24.0968 14.8216 24.0968 14.2817 24.6367C13.7418 25.1766 13.7418 26.0424 14.2817 26.5823L23.0322 35.3226Z" fill="#00BFA5"/>
</svg>
